<?xml version="1.0" standalone="no"?>
<!DOCTYPE svg PUBLIC "-//W3C//DTD SVG 20010904//EN"
 "http://www.w3.org/TR/2001/REC-SVG-20010904/DTD/svg10.dtd">
<svg version="1.0" xmlns="http://www.w3.org/2000/svg"
 width="1080.000000pt" height="1080.000000pt" viewBox="0 0 1080.000000 1080.000000"
 preserveAspectRatio="xMidYMid meet">

<g transform="translate(0.000000,1080.000000) scale(0.100000,-0.100000)"
fill="#000000" stroke="none">
<path d="M5095 10789 c-478 -24 -1019 -131 -1475 -292 -286 -101 -649 -265
-873 -396 -49 -28 -93 -51 -98 -51 -5 0 -9 -3 -9 -8 0 -4 -17 -16 -37 -27 -50
-26 -321 -206 -398 -263 -61 -47 -291 -229 -311 -247 -6 -5 -49 -44 -95 -85
-115 -103 -340 -327 -430 -430 -41 -47 -76 -87 -79 -90 -19 -19 -179 -222
-237 -300 -81 -110 -223 -321 -259 -385 -6 -11 -42 -72 -79 -135 -266 -453
-480 -1014 -594 -1555 -83 -390 -114 -704 -114 -1125 0 -489 48 -883 164
-1345 112 -441 345 -1007 563 -1369 36 -59 66 -110 66 -112 0 -3 43 -70 57
-89 5 -6 35 -51 67 -100 87 -132 301 -416 371 -491 5 -6 39 -44 75 -85 160
-183 423 -432 655 -620 160 -130 473 -349 578 -404 20 -11 37 -23 37 -27 0 -5
4 -8 9 -8 5 0 57 -28 117 -62 246 -139 607 -300 889 -397 825 -282 1729 -359
2600 -220 398 63 777 168 1160 321 242 97 599 275 752 374 28 19 54 34 57 34
5 0 68 40 91 57 6 5 51 35 100 67 132 87 409 296 491 371 6 5 49 44 95 85 115
103 340 327 430 430 41 47 76 87 79 90 15 14 205 255 252 320 70 97 213 310
244 365 6 11 44 76 84 144 272 469 480 1017 594 1566 78 377 109 693 109 1105
0 624 -85 1151 -280 1730 -107 316 -298 737 -447 984 -36 59 -66 110 -66 112
0 2 -11 20 -25 41 -14 21 -30 45 -35 53 -55 84 -184 270 -233 334 -189 248
-490 575 -706 767 -46 41 -89 79 -95 84 -90 82 -355 282 -491 371 -49 32 -94
62 -100 67 -21 16 -82 53 -117 72 -21 11 -38 23 -38 27 0 5 -4 8 -9 8 -5 0
-49 23 -98 51 -48 29 -171 93 -273 143 -833 411 -1731 593 -2685 545z m383
-349 c86 -7 119 -14 141 -29 47 -34 64 -69 64 -133 0 -69 -33 -128 -85 -148
-18 -7 -35 -15 -36 -16 -2 -1 10 -15 28 -31 27 -25 132 -220 125 -233 -2 -3
-49 -4 -104 -2 l-102 3 -55 112 c-59 118 -66 127 -101 127 -23 0 -23 -2 -23
-115 l0 -116 -92 3 -93 3 3 160 c1 88 5 220 8 293 l6 132 102 0 c55 0 152 -5
214 -10z m485 -26 c37 -3 70 -10 73 -15 4 -8 -3 -65 -46 -374 -5 -38 -12 -98
-16 -133 -4 -34 -10 -65 -14 -67 -6 -4 -169 15 -178 21 -3 2 68 552 74 572 2
7 12 11 21 8 10 -2 48 -8 86 -12z m-1376 -61 c73 -34 113 -145 78 -213 -9 -18
-30 -45 -47 -60 l-30 -27 29 -11 c26 -8 138 -122 179 -180 13 -20 12 -21 -42
-37 -31 -9 -77 -19 -103 -22 l-46 -5 -79 90 c-72 83 -97 101 -135 102 -15 0
-12 -25 20 -154 10 -44 17 -81 15 -84 -10 -9 -171 -40 -177 -34 -6 7 -39 143
-54 222 -3 19 -22 99 -41 178 -19 78 -34 148 -34 156 0 9 28 19 83 30 45 10
127 28 182 41 121 29 156 30 202 8z m1939 -28 c32 -14 67 -34 78 -43 42 -38
73 -147 44 -157 -7 -3 -47 1 -88 8 -70 12 -75 14 -78 40 -5 38 -47 69 -91 65
-30 -3 -36 -7 -39 -29 -3 -24 6 -31 97 -79 58 -30 115 -68 135 -90 78 -87 46
-219 -66 -276 -55 -28 -99 -30 -198 -9 -117 25 -173 62 -205 137 -14 35 -21
109 -10 120 5 5 151 -19 166 -27 5 -4 9 -17 9 -30 0 -37 10 -55 41 -70 58 -31
119 -13 119 35 0 30 -12 40 -118 98 -105 57 -152 114 -152 184 0 51 38 108 90
136 40 21 54 23 126 19 56 -4 99 -14 140 -32z m-2542 -132 c9 -26 16 -54 16
-62 0 -12 -39 -29 -138 -61 -146 -49 -144 -47 -122 -106 l9 -23 130 44 c72 24
133 40 136 35 13 -22 34 -105 27 -111 -4 -3 -61 -23 -127 -44 -66 -21 -121
-39 -123 -41 -5 -3 20 -87 28 -97 4 -4 25 -1 46 7 92 34 235 77 246 74 6 -2
19 -30 28 -62 l18 -57 -26 -11 c-93 -36 -438 -145 -443 -140 -4 4 -47 129 -97
279 l-90 272 222 74 c121 41 226 75 233 76 6 0 18 -20 27 -46z m2983 19 c40
-16 75 -31 79 -34 3 -3 -11 -48 -30 -99 -19 -51 -33 -95 -31 -97 3 -3 45 18
55 28 3 3 46 27 97 53 l92 48 73 -29 c40 -16 88 -35 106 -42 17 -7 32 -16 32
-20 0 -7 -234 -120 -250 -120 -17 0 -17 3 40 -309 11 -62 19 -115 17 -117 -3
-4 -194 70 -202 77 -2 3 -11 61 -20 129 -8 68 -17 125 -19 128 -3 2 -29 -7
-59 -22 -50 -23 -55 -29 -76 -85 -12 -33 -25 -63 -30 -65 -7 -4 -159 48 -168
58 -3 3 158 428 191 509 9 20 20 37 24 37 4 0 40 -13 79 -28z m-3587 -252 c17
-34 28 -65 25 -70 -3 -5 -37 -24 -75 -42 -39 -17 -70 -38 -70 -46 0 -8 43 -97
96 -199 52 -102 94 -186 92 -187 -15 -12 -145 -76 -154 -76 -6 0 -46 69 -89
153 -63 124 -106 205 -120 225 -2 2 -37 -15 -79 -38 -43 -22 -81 -38 -85 -36
-14 9 -66 129 -56 133 6 2 114 57 240 123 127 66 233 120 237 120 4 0 21 -27
38 -60z m4632 -231 c179 -114 204 -133 223 -170 61 -116 -47 -261 -175 -235
-35 6 -36 4 -14 -29 14 -21 15 -43 9 -145 -4 -66 -11 -123 -16 -125 -4 -3 -43
16 -86 43 l-78 49 0 135 c0 99 -4 139 -14 151 -7 10 -17 17 -21 17 -5 0 -35
-43 -67 -95 -32 -52 -61 -95 -65 -95 -16 0 -148 86 -148 97 0 9 88 154 185
303 12 19 44 70 70 113 27 42 50 77 51 77 1 0 67 -41 146 -91z m-5251 -125
c34 -17 51 -38 43 -55 -3 -8 -31 -34 -61 -58 -56 -43 -56 -44 -85 -27 -23 14
-35 15 -62 6 -40 -13 -65 -53 -49 -78 13 -22 37 -18 132 21 96 40 202 45 247
11 52 -39 68 -70 72 -143 4 -64 2 -73 -27 -114 -40 -59 -96 -106 -168 -143
-90 -45 -174 -38 -240 20 -36 30 -35 31 51 100 47 38 49 39 76 23 41 -25 92
-22 124 8 41 38 32 105 -15 105 -10 0 -53 -14 -96 -30 -44 -18 -107 -33 -143
-36 -57 -5 -69 -3 -99 17 -66 46 -88 129 -56 206 19 46 104 126 163 154 82 40
134 44 193 13z m5755 -229 c24 -20 49 -41 56 -48 12 -12 187 -162 236 -203 12
-10 22 -22 22 -27 0 -12 -72 -87 -83 -87 -9 0 -112 86 -183 153 l-41 38 -27
-32 c-15 -17 -26 -35 -24 -39 2 -4 41 -41 88 -81 112 -96 113 -96 103 -112
-14 -24 -61 -77 -69 -77 -3 0 -50 38 -104 85 -54 47 -102 85 -107 85 -5 0 -23
-17 -40 -38 l-31 -38 76 -64 c135 -116 152 -132 152 -142 0 -5 -19 -29 -41
-53 -36 -38 -44 -43 -59 -32 -44 31 -350 303 -350 311 0 5 21 34 47 65 65 77
241 278 280 321 18 19 33 38 33 43 0 16 25 5 66 -28z m-6173 -332 l278 -138
-63 -62 c-35 -34 -69 -62 -76 -63 -7 0 -31 9 -54 21 l-41 21 -69 -70 -70 -69
22 -44 22 -43 -67 -64 c-37 -35 -70 -60 -74 -56 -4 5 -22 45 -40 89 -18 44
-42 100 -53 125 -12 25 -26 61 -33 81 -7 19 -22 56 -34 82 -12 26 -35 80 -51
120 l-30 72 71 68 c40 37 74 67 78 67 3 0 131 -62 284 -137z m6746 -190 c119
-139 144 -184 143 -259 -1 -70 -28 -128 -95 -194 -126 -126 -250 -151 -360
-70 -37 27 -237 247 -237 261 0 8 431 379 441 379 4 0 53 -53 108 -117z
m-7329 -119 c22 -9 40 -20 40 -25 0 -5 -23 -38 -50 -74 -49 -61 -52 -63 -80
-54 -50 18 -99 -23 -100 -82 0 -37 33 -29 114 25 99 65 121 77 166 87 118 27
233 -99 201 -221 -23 -85 -94 -179 -179 -235 -33 -22 -54 -28 -96 -28 -55 0
-131 29 -131 51 0 9 31 52 81 110 17 21 24 23 41 13 59 -31 143 19 143 84 0
21 -29 45 -54 45 -13 0 -61 -25 -107 -55 -52 -34 -104 -59 -137 -66 -48 -11
-57 -10 -98 9 -25 12 -53 36 -64 54 -27 44 -26 124 1 182 28 61 115 151 169
175 55 25 87 26 140 5z m7749 -386 c52 -83 60 -67 -85 -158 -219 -138 -235
-153 -221 -212 10 -39 55 -78 91 -78 34 0 43 4 143 68 181 115 209 131 218
131 11 0 85 -113 92 -139 2 -10 -45 -45 -158 -115 -177 -110 -205 -123 -263
-124 -70 -2 -114 19 -169 79 -71 78 -117 171 -117 240 0 64 30 130 77 168 48
39 324 212 337 212 6 -1 31 -33 55 -72z m-8154 -142 c55 -36 138 -88 184 -118
46 -29 107 -68 134 -85 27 -18 53 -33 58 -33 14 0 12 -4 -37 -85 -25 -41 -51
-75 -58 -75 -6 0 -47 24 -91 53 -44 29 -151 97 -237 152 -87 54 -158 103 -158
107 0 12 90 148 98 148 4 0 52 -29 107 -64z m-130 -307 c117 -31 219 -108 255
-190 34 -80 23 -130 -66 -310 -41 -82 -78 -149 -82 -149 -9 0 -402 198 -470
237 -53 30 -54 27 32 192 62 118 107 180 151 204 48 26 119 32 180 16z m8631
-204 c122 -71 193 -272 136 -380 -12 -22 -31 -51 -43 -65 l-21 -24 -44 49
c-53 62 -60 79 -40 110 32 49 15 119 -36 150 -74 43 -242 -33 -264 -120 -9
-35 21 -92 56 -110 18 -9 48 -15 68 -13 l37 3 11 -80 c7 -44 9 -84 6 -89 -2
-5 -36 -6 -74 -3 -108 9 -164 53 -220 172 -27 58 -33 82 -33 140 0 58 5 78 27
116 89 151 301 222 434 144z m-3846 -86 c0 -6 -4 -7 -10 -4 -5 3 -10 11 -10
16 0 6 5 7 10 4 6 -3 10 -11 10 -16z m-290 -33 c345 -52 631 -161 903 -343
409 -275 713 -654 883 -1102 98 -255 133 -442 141 -736 10 -397 -44 -671 -196
-990 -336 -705 -1036 -1197 -1815 -1274 -257 -26 -628 2 -811 59 -16 5 -74 23
-128 40 -404 126 -802 399 -1066 731 -42 53 -83 106 -91 119 -8 12 -22 32 -31
44 -36 49 -123 210 -165 307 -135 311 -187 560 -188 899 0 317 47 562 167 855
270 666 869 1186 1553 1351 95 22 249 47 364 58 83 8 384 -4 480 -18z m4421
-417 c4 -13 42 -129 84 -257 42 -129 75 -235 73 -237 -2 -3 -33 -13 -68 -24
-45 -14 -66 -17 -71 -9 -4 6 -17 43 -30 82 -13 39 -25 73 -26 75 -1 1 -91 -27
-200 -63 -109 -36 -203 -66 -208 -66 -14 0 -68 161 -58 171 10 9 373 129 390
129 18 0 16 15 -13 103 -14 43 -24 80 -23 81 9 8 125 44 133 42 6 -1 13 -13
17 -27z m-9363 -224 c73 -85 140 -155 149 -155 9 0 61 -14 115 -31 83 -25 99
-33 93 -47 -4 -9 -13 -44 -22 -77 -8 -33 -19 -64 -23 -69 -9 -9 -62 2 -170 35
l-65 20 -193 -64 c-105 -35 -194 -62 -196 -60 -5 5 44 176 55 189 5 6 52 21
104 34 53 13 97 26 99 29 2 3 -29 41 -70 85 -41 43 -74 82 -74 86 0 4 4 20 9
36 5 16 17 55 26 87 8 31 19 57 23 57 4 0 67 -70 140 -155z m9548 -442 c3 -16
12 -53 20 -83 7 -30 10 -58 6 -62 -4 -4 -50 -17 -102 -28 -52 -11 -173 -38
-269 -60 -95 -22 -179 -40 -186 -40 -12 0 -53 165 -44 174 7 7 513 124 541
125 22 1 29 -4 34 -26z m-9752 -133 c5 -5 3 -44 -3 -90 -7 -45 -11 -84 -9 -86
2 -2 98 -16 214 -31 115 -15 211 -28 213 -29 6 -5 -10 -160 -18 -173 -6 -10
-49 -7 -197 14 -104 14 -200 27 -214 28 -24 2 -25 -1 -35 -83 l-10 -85 -69 2
c-38 2 -71 5 -75 8 -3 3 8 108 24 233 16 125 31 246 33 270 l4 43 67 -6 c36
-4 70 -11 75 -15z m9723 -256 c96 -46 143 -140 143 -282 0 -107 -25 -169 -91
-225 -60 -52 -129 -70 -243 -65 -74 3 -99 8 -130 27 -49 30 -82 66 -109 116
-29 55 -37 226 -13 289 19 49 71 107 118 132 91 49 234 52 325 8z m-9415 -430
l67 -6 -6 -86 c-3 -48 -7 -89 -9 -91 -5 -6 -574 16 -581 22 -2 3 -2 45 2 92
l8 87 226 -6 c124 -4 256 -9 293 -12z m9248 -284 c69 -6 169 -14 223 -19 54
-5 100 -11 103 -14 3 -3 2 -41 -2 -86 l-7 -80 -133 -76 c-74 -41 -138 -75
-144 -75 -5 0 -10 -4 -10 -9 0 -5 -10 -12 -22 -16 -22 -7 -22 -8 -3 -12 11 -2
81 -9 155 -16 96 -8 135 -16 134 -24 -1 -7 -2 -41 -3 -75 -1 -35 -5 -68 -9
-75 -6 -9 -72 -7 -291 12 -156 13 -285 26 -288 29 -3 2 -2 42 2 89 l7 84 42
21 c22 12 82 45 131 73 50 28 106 60 125 70 19 10 30 19 25 20 -6 0 -75 6
-155 12 l-145 12 3 75 c3 105 1 103 74 96 35 -3 119 -10 188 -16z m-9315 -31
c53 -25 107 -87 125 -144 18 -55 16 -201 -3 -246 -21 -51 -81 -107 -146 -137
-47 -22 -70 -26 -151 -26 -80 0 -102 4 -140 23 -61 32 -87 57 -118 116 -25 45
-27 60 -27 162 0 108 1 113 30 154 34 48 112 106 124 93 5 -5 18 -40 29 -78
l21 -69 -35 -32 c-28 -27 -34 -39 -34 -75 0 -34 6 -48 34 -76 32 -32 39 -34
98 -34 77 0 136 15 166 43 17 16 22 32 22 68 0 57 -27 94 -80 107 -39 10 -38
7 -19 105 16 78 26 82 104 46z m8897 -1530 l37 -19 -23 -52 c-13 -29 -40 -88
-60 -132 -20 -43 -36 -82 -36 -86 0 -13 71 -33 79 -24 4 5 29 58 56 117 27 60
52 110 57 113 9 6 108 -36 108 -46 0 -4 -18 -46 -39 -92 -22 -47 -47 -102 -55
-122 l-15 -37 46 -20 c25 -11 50 -16 54 -12 4 4 33 65 65 136 32 71 64 127 71
127 8 0 36 -11 63 -25 l50 -25 -15 -38 c-32 -76 -179 -397 -185 -405 -7 -8
-32 2 -180 70 -142 66 -269 123 -309 139 -55 22 -54 24 36 219 39 83 79 172
91 198 24 54 28 54 104 16z m-8431 -214 c21 -47 39 -90 39 -95 0 -5 -98 -107
-217 -225 -171 -169 -220 -212 -229 -203 -7 7 -26 45 -42 84 l-30 71 36 36 36
36 -37 78 c-20 44 -37 84 -37 89 0 7 -21 9 -55 6 l-55 -4 -25 58 c-14 33 -31
69 -37 81 -6 13 -9 25 -7 27 3 4 474 39 592 45 26 1 31 -6 68 -84z m188 -373
l41 -69 -80 -168 c-44 -92 -79 -169 -78 -170 2 -2 61 31 132 72 128 73 130 74
145 54 22 -29 75 -131 70 -135 -4 -3 -263 -151 -327 -188 -18 -10 -65 -36
-103 -58 -39 -22 -72 -40 -74 -40 -5 0 -85 141 -85 149 0 8 77 170 130 274 16
31 25 57 21 57 -5 0 -62 -31 -128 -70 -65 -38 -123 -70 -129 -70 -13 0 -86
130 -80 145 2 6 30 25 62 43 33 18 140 79 239 136 99 58 185 105 191 105 7 1
30 -30 53 -67z m8095 59 c3 -5 -1 -30 -10 -57 -33 -104 -33 -104 -74 -104 -71
0 -115 -74 -86 -143 27 -65 152 -136 219 -123 38 7 58 26 76 72 14 35 3 75
-32 112 l-21 22 60 55 c32 30 62 55 66 55 12 0 61 -64 76 -100 48 -114 -56
-326 -184 -375 -107 -41 -253 2 -351 102 -93 95 -103 194 -34 330 35 69 80
115 141 142 46 21 144 29 154 12z m-351 -514 c56 -40 158 -113 227 -161 69
-49 129 -93 134 -97 6 -5 -6 -32 -30 -66 -71 -105 -58 -103 -163 -26 -89 65
-115 84 -282 199 -103 71 -103 72 -71 119 37 55 75 105 79 105 2 0 50 -33 106
-73z m-7423 -49 c25 -33 55 -72 68 -87 85 -98 122 -195 103 -268 -16 -59 -64
-127 -122 -173 -85 -67 -125 -84 -199 -85 -108 0 -135 21 -319 254 -28 35 -51
67 -51 70 0 4 33 31 72 61 40 30 82 62 93 72 11 9 56 44 100 79 44 34 104 82
133 105 29 24 58 41 65 38 7 -3 32 -32 57 -66z m7233 -111 l47 -43 -87 -98
-87 -98 37 -34 36 -34 48 57 c26 32 60 71 74 87 l27 29 41 -33 c22 -18 41 -39
41 -46 0 -12 -30 -51 -84 -109 -54 -59 -54 -62 5 -113 30 -26 69 -61 88 -77
l33 -31 -58 -67 c-32 -37 -61 -67 -64 -67 -8 0 -353 296 -429 368 -11 11 -9
17 10 42 50 62 264 309 269 309 3 0 26 -19 53 -42z m-323 -373 l45 -45 -92
-90 c-51 -49 -93 -92 -93 -96 0 -5 14 -21 30 -37 l30 -29 26 24 c15 13 49 45
75 72 26 26 54 47 61 47 8 0 31 -17 51 -38 l37 -38 -80 -78 c-44 -43 -80 -81
-80 -83 0 -3 15 -19 33 -37 18 -17 54 -54 79 -83 l48 -52 -64 -60 c-61 -59
-81 -71 -88 -52 -1 5 -88 97 -193 206 -104 108 -191 200 -192 203 -2 4 44 51
102 105 57 54 128 122 157 152 29 29 55 54 58 54 3 1 26 -20 50 -45z m-6369
-131 c49 -42 89 -78 89 -78 0 -1 -34 -70 -75 -154 -41 -83 -75 -154 -75 -156
0 -5 118 73 130 85 15 16 147 100 156 100 17 0 187 -152 177 -159 -5 -3 -78
-87 -163 -186 -85 -99 -169 -195 -186 -214 l-32 -35 -56 48 c-54 46 -64 61
-48 68 4 2 36 37 72 78 36 41 67 77 70 80 25 25 110 130 105 130 -3 0 -25 -14
-48 -31 -105 -77 -283 -198 -292 -198 -5 0 -31 19 -58 43 l-48 43 93 184 c105
209 107 213 78 179 -12 -14 -54 -63 -93 -109 -40 -46 -92 -106 -117 -134 l-46
-49 -54 49 -54 50 26 34 c22 29 80 96 247 285 20 22 51 59 70 82 18 23 36 42
38 42 3 0 45 -35 94 -77z m6034 -267 c61 -28 134 -106 172 -184 22 -45 28 -70
27 -122 0 -116 -65 -205 -199 -272 -78 -40 -166 -43 -235 -8 -93 46 -186 177
-198 276 -7 65 21 145 73 202 105 117 249 160 360 108z m-5375 -237 c44 -28
80 -56 80 -63 0 -6 -9 -51 -20 -101 -70 -317 -100 -461 -100 -477 0 -27 -15
-23 -97 28 -67 42 -74 50 -68 72 20 79 22 73 -66 128 l-83 52 -37 -30 c-21
-17 -41 -29 -46 -27 -47 21 -152 94 -145 101 19 19 487 367 494 368 4 0 43
-23 88 -51z m4669 -179 c17 -33 31 -64 31 -68 0 -4 -34 -25 -75 -46 -41 -21
-75 -43 -75 -48 0 -6 42 -91 93 -191 50 -99 93 -184 95 -189 3 -5 -147 -88
-160 -88 -2 0 -48 87 -103 194 l-99 194 -80 -40 c-75 -38 -80 -39 -93 -22 -7
10 -13 22 -13 28 0 5 -2 7 -5 4 -3 -2 31 -108 74 -236 58 -168 76 -234 68
-240 -7 -5 -43 -19 -82 -31 l-69 -21 -46 32 c-25 18 -47 34 -50 38 -16 18
-200 149 -200 143 0 -5 20 -69 45 -143 24 -74 42 -136 40 -138 -6 -7 -139 -52
-151 -52 -10 0 -200 548 -193 554 10 8 135 46 152 46 10 0 83 -49 163 -110 79
-60 144 -106 144 -101 0 5 -20 66 -45 137 -25 70 -45 133 -45 139 0 7 30 22
68 35 60 20 270 121 487 235 44 23 83 43 87 44 4 0 21 -26 37 -59z m-4260
-137 c7 -43 16 -96 21 -118 5 -22 12 -66 15 -98 4 -31 10 -59 14 -61 4 -3 33
56 66 130 33 73 65 134 72 134 10 0 143 -56 150 -64 3 -3 -232 -524 -240 -532
-4 -4 -156 61 -157 68 -1 2 -16 86 -34 188 -30 170 -34 183 -45 155 -7 -16
-29 -66 -50 -110 -21 -44 -44 -95 -52 -113 -8 -17 -16 -31 -20 -30 -3 2 -38
17 -77 33 -72 30 -81 40 -62 73 17 30 210 462 210 470 0 4 5 13 11 19 8 8 33
0 88 -27 l78 -38 12 -79z m646 -182 c63 -23 80 -33 86 -52 3 -14 9 -156 13
-316 l8 -291 -91 30 -91 31 0 52 0 52 -83 27 c-46 14 -90 26 -99 26 -9 0 -26
-16 -38 -36 -12 -19 -27 -34 -34 -32 -77 21 -166 53 -166 60 0 5 33 48 73 96
140 166 263 317 287 350 13 17 31 32 39 32 9 0 52 -13 96 -29z m2533 -112 c18
-75 17 -76 -40 -88 -29 -6 -94 -21 -145 -32 l-92 -21 6 -32 c10 -56 9 -55 143
-25 69 16 130 28 136 29 7 0 15 -17 19 -37 3 -21 9 -47 11 -59 5 -19 -3 -22
-98 -43 -151 -33 -170 -40 -164 -59 2 -10 7 -32 11 -49 8 -41 15 -42 170 -3
66 16 125 30 132 30 6 0 16 -23 22 -50 16 -75 14 -90 -10 -90 -12 0 -49 -7
-83 -16 -100 -26 -370 -83 -374 -79 -2 2 -19 73 -38 157 -19 84 -48 209 -64
277 -17 68 -27 127 -23 131 4 4 42 14 83 23 41 10 140 32 220 51 80 19 150 35
156 35 6 1 16 -22 22 -50z m-1956 -18 c43 -10 95 -30 117 -44 39 -26 76 -88
83 -137 3 -25 2 -25 -85 -28 -83 -3 -88 -2 -96 20 -14 37 -47 60 -93 65 -85 8
-137 -55 -146 -177 -7 -109 35 -160 132 -160 65 0 96 14 96 44 0 22 -6 25 -52
33 l-53 9 3 54 c2 30 7 59 11 63 8 8 260 -31 272 -42 4 -3 -3 -60 -15 -126
-24 -135 -20 -131 -131 -160 -73 -19 -121 -19 -206 -1 -130 28 -202 89 -234
200 -38 132 22 299 132 367 68 42 148 48 265 20z m1448 -68 c0 -29 25 -365 36
-489 l6 -71 -73 -6 c-41 -2 -75 -4 -77 -2 -3 3 -29 310 -33 385 -1 31 -8 2
-48 -224 -17 -93 -32 -170 -33 -171 -2 -1 -33 -5 -70 -9 l-66 -6 -68 205 c-37
112 -69 203 -71 201 -2 -1 4 -79 12 -172 8 -93 15 -185 15 -205 l0 -37 -72 -4
c-40 -3 -74 -4 -74 -4 -2 1 -31 362 -40 488 l-6 96 78 7 c44 3 99 7 124 8 l44
2 17 -60 c21 -73 83 -253 91 -260 2 -3 17 68 32 157 15 90 31 167 37 173 8 8
97 18 207 23 29 2 32 -1 32 -25z m-945 2 c290 -22 265 -14 265 -85 0 -32 -3
-61 -7 -63 -7 -4 -127 5 -250 18 l-53 5 0 -44 0 -45 43 -5 c23 -3 83 -8 132
-11 50 -4 93 -9 96 -13 10 -11 -5 -117 -16 -116 -6 1 -67 5 -137 9 l-127 7 -6
-25 c-4 -13 -5 -38 -3 -53 l3 -29 148 -11 c81 -6 150 -13 152 -16 3 -3 2 -32
-1 -66 l-7 -62 -33 0 c-70 0 -449 32 -456 38 -4 4 -3 48 2 97 5 50 14 170 20
269 10 151 14 198 19 214 1 3 0 3 216 -13z"/>
<path d="M5340 10265 l0 -55 58 0 c66 0 102 19 102 54 0 39 -30 56 -98 56
l-62 0 0 -55z"/>
<path d="M4373 10217 c-47 -11 -50 -17 -31 -79 11 -38 13 -39 47 -33 20 4 51
13 69 20 26 11 32 20 32 44 0 56 -31 69 -117 48z"/>
<path d="M7926 9568 c-14 -23 -23 -46 -20 -50 8 -12 101 -58 117 -58 20 0 47
33 47 58 0 22 -81 92 -106 92 -7 0 -24 -19 -38 -42z"/>
<path d="M2101 8983 c0 -4 19 -45 42 -90 l42 -82 44 39 c25 22 43 41 40 44 -2
2 -26 16 -54 31 -27 15 -65 36 -82 47 -18 11 -33 16 -32 11z"/>
<path d="M8910 8672 c-41 -37 -90 -80 -109 -95 -30 -25 -33 -31 -23 -52 6 -13
29 -36 51 -51 36 -23 43 -25 75 -14 45 15 129 90 150 134 12 26 14 41 6 61
-15 39 -49 85 -63 84 -7 0 -46 -30 -87 -67z"/>
<path d="M1088 7713 c-24 -15 -75 -90 -67 -98 7 -6 267 -135 273 -135 11 0 46
80 46 105 0 49 -106 128 -186 140 -27 4 -47 0 -66 -12z"/>
<path d="M5220 7530 c-36 -5 -95 -11 -132 -15 -63 -6 -68 -8 -68 -31 0 -17 6
-24 19 -24 22 0 27 -22 37 -161 6 -92 6 -96 -15 -102 -13 -3 -21 -13 -21 -26
0 -24 14 -25 119 -15 55 6 61 9 61 30 0 16 -7 24 -22 26 -19 2 -24 10 -26 47
-2 24 1 48 6 53 13 13 39 0 45 -23 3 -12 14 -19 29 -19 l23 0 -9 80 c-9 73
-12 81 -30 78 -12 -2 -23 -13 -26 -28 -8 -34 -45 -40 -54 -8 -16 63 -3 78 72
78 24 0 42 -9 64 -30 32 -32 36 -34 56 -22 10 7 7 21 -13 65 -15 31 -32 56
-38 56 -7 -1 -41 -5 -77 -9z"/>
<path d="M5663 7504 c-4 -11 1 -22 12 -30 18 -13 18 -19 7 -87 -23 -137 -35
-172 -57 -172 -27 0 -33 -41 -8 -49 71 -20 234 -46 260 -41 40 7 83 57 83 96
0 19 -10 40 -27 56 -19 19 -22 28 -13 31 29 10 60 52 60 81 0 31 -34 75 -67
85 -37 11 -208 46 -225 46 -10 0 -21 -7 -25 -16z m209 -85 c20 -11 24 -54 7
-65 -15 -9 -90 -7 -99 3 -4 4 -5 25 -2 46 4 38 5 39 41 32 19 -4 44 -11 53
-16z m-24 -145 c45 -29 17 -84 -43 -84 -66 0 -72 8 -55 72 10 35 13 37 43 31
18 -3 42 -12 55 -19z"/>
<path d="M4642 7403 c-85 -41 -129 -140 -101 -226 18 -58 86 -123 137 -132 77
-13 182 35 220 100 46 80 12 205 -71 255 -40 25 -138 27 -185 3z m126 -63 c55
-51 77 -167 39 -205 -27 -26 -97 -31 -123 -8 -35 30 -54 79 -54 137 0 47 4 57
26 75 34 27 84 27 112 1z"/>
<path d="M6160 7240 c-71 -67 -123 -109 -136 -110 -13 0 -24 -8 -27 -20 -4
-17 4 -25 44 -45 26 -14 55 -25 63 -25 19 0 29 30 14 47 -9 11 -7 18 9 34 19
20 20 20 65 0 54 -23 61 -32 53 -64 -5 -18 -12 -23 -25 -20 -12 3 -22 -3 -30
-16 -10 -20 -6 -24 65 -57 41 -19 80 -32 85 -29 13 8 13 38 0 51 -8 8 -8 50 0
139 15 191 15 192 -20 210 -16 8 -33 15 -37 15 -4 0 -60 -50 -123 -110z m100
-38 c0 -50 -6 -55 -42 -36 l-30 16 28 29 c37 38 44 37 44 -9z"/>
<path d="M4156 7139 c-31 -22 -56 -44 -56 -48 0 -15 27 -31 42 -26 12 5 17 -6
22 -46 4 -28 5 -54 2 -57 -7 -6 -74 13 -95 27 -12 8 -12 12 -2 25 11 13 11 19
1 31 -17 20 -20 19 -60 -16 -19 -17 -47 -38 -62 -47 -15 -9 -28 -22 -28 -28 0
-18 26 -35 42 -29 24 10 189 -55 215 -84 24 -28 29 -51 13 -67 -7 -7 -6 -16 3
-28 13 -17 17 -16 68 20 85 60 92 71 66 93 -10 8 -17 7 -25 -1 -14 -14 -46 12
-68 54 -16 31 -20 208 -5 224 6 5 5 16 -3 26 -12 16 -17 15 -70 -23z"/>
<path d="M5173 7115 c-641 -82 -1205 -536 -1438 -1160 -92 -247 -133 -552
-106 -792 53 -463 270 -876 616 -1169 324 -274 731 -423 1157 -424 331 0 658
92 958 271 150 90 386 310 488 456 34 49 65 93 70 98 19 23 112 206 141 275
81 198 131 451 131 667 0 79 -23 294 -39 368 -79 359 -262 683 -529 935 -258
245 -566 402 -902 461 -151 27 -396 33 -547 14z m487 -115 c69 -10 165 -31
214 -45 187 -55 407 -171 566 -298 117 -93 326 -317 309 -331 -2 -1 -134 1
-294 5 -485 13 -1281 28 -1832 35 -297 4 -523 10 -523 16 0 18 127 154 210
224 90 77 89 76 171 131 346 233 769 327 1179 263z m-1490 -841 c69 -77 142
-159 163 -182 l38 -42 -6 -345 c-3 -190 -10 -475 -15 -635 -5 -159 -12 -407
-16 -550 l-6 -260 58 -27 c111 -51 399 -186 604 -282 113 -54 226 -107 252
-119 26 -12 48 -25 48 -30 0 -4 -26 -4 -57 -1 -166 17 -369 70 -498 129 -41
19 -77 35 -79 35 -12 0 -162 92 -235 144 -213 150 -442 426 -538 646 -42 96
-66 162 -87 235 -32 109 -33 117 -51 240 -45 320 12 668 157 960 46 91 127
225 137 225 3 0 63 -63 131 -141z m1407 -5 c21 -10 58 -24 82 -33 56 -20 70
-47 20 -37 -125 25 -180 16 -145 -23 9 -10 16 -21 16 -26 0 -11 -131 2 -144
15 -5 5 -20 10 -33 10 -38 0 -27 17 45 70 73 55 85 57 159 24z m1340 -101
c104 -221 147 -392 159 -639 18 -361 -76 -702 -274 -994 -86 -127 -218 -279
-243 -280 -3 0 -4 66 -2 148 14 553 25 887 38 1157 8 171 15 338 15 372 0 35
5 67 13 75 6 7 32 38 57 68 25 30 47 57 50 60 3 3 25 30 50 60 25 30 49 60 55
67 20 25 32 11 82 -94z m-564 83 c9 -7 17 -23 17 -35 0 -38 29 -36 65 4 38 41
72 45 67 6 -1 -12 -9 -30 -18 -38 -9 -9 -14 -26 -11 -39 3 -19 -1 -23 -29 -29
-48 -8 -76 2 -99 38 -18 28 -26 32 -68 33 -26 0 -49 3 -52 6 -6 6 51 51 75 61
23 9 34 7 53 -7z m-1446 -191 c39 -45 49 -90 32 -142 -46 -141 -260 -125 -276
20 -7 63 12 113 55 143 32 22 45 25 96 21 54 -3 62 -7 93 -42z m1199 -182 c4
-10 33 -74 66 -142 59 -121 61 -125 55 -187 -5 -51 -2 -76 18 -133 14 -39 25
-90 25 -115 0 -26 6 -48 14 -55 17 -14 36 -94 29 -120 -2 -10 3 -53 11 -95 9
-42 14 -81 12 -85 -3 -4 -70 57 -148 136 l-143 144 12 142 c14 156 7 255 -28
409 -10 47 -16 93 -13 102 9 23 83 22 90 -1z m84 -49 c0 -8 -4 -12 -10 -9 -5
3 -10 10 -10 16 0 5 5 9 10 9 6 0 10 -7 10 -16z m-905 -174 c53 -25 75 -64 75
-130 0 -84 -58 -140 -145 -140 -146 0 -192 210 -60 271 51 24 79 24 130 -1z
m-561 -219 c3 -4 -26 -11 -65 -13 -80 -6 -97 -17 -105 -70 l-6 -36 48 -10 c27
-6 114 -24 193 -39 l145 -28 52 -50 c43 -41 52 -55 47 -73 -12 -47 -43 -55
-175 -49 -138 6 -175 -2 -185 -41 -9 -36 -5 -53 20 -79 14 -16 32 -23 57 -23
20 0 50 -6 66 -14 16 -8 70 -17 120 -21 95 -6 240 -37 257 -54 5 -5 12 -32 15
-59 4 -46 2 -50 -33 -79 -33 -28 -46 -31 -133 -38 -181 -13 -232 -35 -232
-103 0 -47 32 -72 148 -116 110 -42 103 -42 504 -24 175 7 283 8 296 2 11 -5
72 -58 136 -118 146 -137 153 -162 31 -110 -149 63 -303 127 -340 141 -64 24
-232 27 -375 8 -233 -31 -270 -31 -368 1 -89 29 -126 55 -234 168 l-38 39 33
60 c31 57 37 62 98 84 56 21 76 23 160 18 l96 -6 17 62 c9 34 15 63 14 64 -4
4 -277 70 -369 90 -72 15 -78 19 -108 61 -36 51 -38 65 -13 86 39 35 68 41
179 42 100 1 114 3 127 21 19 24 20 54 3 77 -7 9 -65 32 -129 51 -64 20 -126
42 -137 49 -51 31 -28 101 40 125 40 14 135 17 143 4z m972 -221 c55 -27 78
-73 71 -144 -4 -44 -10 -55 -47 -88 -48 -43 -84 -48 -150 -22 -54 22 -80 66
-80 136 0 48 4 58 32 87 55 56 104 65 174 31z m-616 -231 c0 -10 -49 -24 -57
-16 -3 4 0 21 7 38 l14 32 18 -23 c10 -12 18 -26 18 -31z m-584 -196 c19 -26
17 -40 -8 -47 -31 -8 -41 6 -27 37 14 32 18 33 35 10z m1663 -10 c59 -45 79
-120 47 -182 -47 -89 -160 -107 -231 -35 -94 93 -19 252 114 240 24 -2 55 -13
70 -23z m-789 -199 c0 -15 -35 -28 -50 -19 -6 4 -4 18 6 37 16 30 17 31 30 13
8 -10 14 -24 14 -31z m-825 -214 c15 -29 15 -30 -9 -36 -37 -9 -46 2 -29 36 8
17 16 30 18 30 3 0 11 -13 20 -30z m955 -165 c18 -21 5 -45 -25 -45 -29 0 -29
0 -13 35 13 29 21 31 38 10z m-430 -62 c0 -8 -12 -13 -30 -13 -35 0 -35 1 -14
42 l16 32 14 -25 c7 -13 13 -30 14 -36z m209 31 c14 -31 7 -44 -25 -44 -27 0
-29 8 -12 45 14 32 22 32 37 -1z m406 -104 c-6 -10 -55 -14 -55 -5 0 4 7 20
16 37 l16 32 15 -27 c7 -15 11 -32 8 -37z m625 -10 c-29 -22 -222 -119 -295
-148 -92 -36 -314 -96 -323 -87 -9 8 -20 4 383 160 94 36 184 72 200 80 45 21
65 18 35 -5z"/>
<path d="M6538 7083 c-44 -30 -88 -111 -88 -162 0 -72 78 -171 136 -171 14 0
31 -12 44 -30 12 -16 27 -30 33 -29 7 0 26 19 42 42 23 32 39 43 62 45 17 2
34 9 37 17 7 19 -119 119 -139 111 -18 -7 -19 -28 -3 -44 9 -9 9 -18 0 -37 -9
-20 -19 -25 -46 -25 -42 0 -76 37 -76 83 0 45 35 109 73 135 76 51 147 10 147
-87 0 -31 4 -41 21 -46 24 -8 20 -13 48 53 23 55 21 72 -8 72 -9 0 -27 14 -40
31 -37 50 -78 69 -146 68 -47 0 -68 -6 -97 -26z"/>
<path d="M3783 6818 c-6 -7 -12 -18 -14 -25 -7 -23 -122 -153 -134 -153 -25 0
-23 -27 7 -79 42 -72 64 -67 60 12 -5 83 9 82 117 -5 81 -65 91 -76 86 -99 -4
-16 0 -30 8 -38 12 -9 24 -1 63 45 63 72 67 79 50 93 -11 9 -19 9 -34 0 -18
-11 -28 -6 -92 47 -40 32 -84 69 -99 81 -35 29 -17 48 47 48 45 -1 62 8 62 31
0 6 -25 21 -56 33 -66 25 -59 24 -71 9z"/>
<path d="M6997 6806 c-3 -8 -4 -22 -1 -33 3 -13 -10 -28 -48 -56 -87 -62 -128
-103 -134 -136 -11 -51 4 -99 45 -141 34 -36 43 -40 88 -40 53 0 49 -2 184 94
35 26 43 28 61 17 17 -11 23 -10 35 2 14 13 11 21 -23 71 -22 30 -44 55 -50
56 -19 0 -34 -25 -28 -47 5 -16 -7 -30 -53 -65 -105 -81 -136 -89 -175 -45
-37 41 -14 80 89 154 57 41 68 45 85 34 17 -11 23 -10 35 2 13 13 9 23 -33 81
-49 66 -67 78 -77 52z"/>
<path d="M3487 6389 c-35 -65 -37 -73 -23 -87 15 -15 17 -15 33 1 16 16 23 14
112 -34 114 -60 123 -67 119 -88 -3 -20 10 -41 25 -41 10 0 87 134 87 152 0
15 -35 17 -51 2 -16 -14 -25 -11 -124 43 -93 51 -106 61 -102 81 4 19 -16 43
-35 42 -2 0 -20 -32 -41 -71z"/>
<path d="M7274 6396 c-3 -8 -3 -19 0 -24 8 -13 -4 -21 -118 -82 -89 -47 -101
-51 -111 -36 -14 19 -27 20 -42 5 -9 -9 -4 -26 17 -68 44 -86 55 -98 74 -82 8
7 14 22 13 33 -2 16 19 31 104 77 103 54 107 55 126 38 18 -16 21 -16 33 -2
10 13 7 27 -23 83 -35 66 -62 88 -73 58z"/>
<path d="M3360 6119 c0 -13 -11 -46 -25 -73 -66 -130 16 -266 160 -266 110 0
185 76 185 187 0 50 -34 133 -54 133 -29 0 -34 -21 -14 -62 25 -52 19 -104
-17 -135 -21 -19 -38 -23 -90 -23 -58 0 -66 3 -99 34 -48 45 -49 85 -2 132 21
21 44 34 59 34 17 0 28 7 32 21 4 11 5 22 3 24 -2 2 -34 7 -71 11 -66 7 -67 6
-67 -17z"/>
<path d="M7283 6080 c-93 -22 -148 -96 -140 -186 15 -156 147 -236 279 -168
140 72 124 275 -27 345 -43 20 -61 21 -112 9z m131 -101 c35 -16 52 -69 34
-105 -19 -39 -56 -62 -113 -73 -64 -12 -107 4 -125 48 -11 28 -11 37 3 66 29
61 134 94 201 64z"/>
<path d="M3349 5287 c-43 -33 -49 -84 -15 -123 57 -68 173 -5 144 78 -15 43
-35 57 -78 57 -19 0 -42 -5 -51 -12z"/>
<path d="M7346 5194 c-35 -36 -34 -77 3 -115 19 -18 40 -29 58 -29 58 0 102
56 83 105 -26 68 -96 87 -144 39z"/>
<path d="M4767 3604 c-17 -17 -5 -43 23 -53 35 -12 35 -12 -10 -146 -27 -80
-27 -80 -60 -77 -33 2 -50 -10 -50 -35 0 -7 8 -13 17 -13 10 0 52 -12 95 -26
42 -15 84 -24 93 -20 23 9 14 40 -13 44 -31 5 -29 26 18 170 22 68 40 130 40
138 0 10 -15 14 -59 14 -33 0 -66 2 -73 5 -8 3 -17 2 -21 -1z"/>
<path d="M5795 3568 c-43 -15 -74 -46 -86 -89 -14 -46 -7 -78 28 -119 26 -31
29 -32 89 -28 43 3 69 10 83 22 21 19 21 19 21 -5 0 -38 -24 -64 -85 -93 -49
-23 -54 -28 -45 -46 10 -18 13 -18 57 -5 86 26 152 95 160 169 8 69 -13 130
-58 171 -34 30 -46 35 -87 34 -26 0 -60 -5 -77 -11z m105 -75 c36 -46 8 -103
-51 -103 -48 0 -75 64 -47 110 19 30 71 27 98 -7z"/>
<path d="M5079 3525 c-40 -22 -59 -58 -59 -113 0 -41 5 -53 31 -78 27 -26 37
-29 95 -29 35 0 64 -3 64 -7 0 -28 -81 -68 -140 -68 -36 0 -40 -2 -40 -25 0
-23 3 -25 53 -25 155 0 245 85 235 221 -3 48 -10 65 -33 89 -46 48 -150 66
-206 35z m116 -47 c45 -21 46 -99 0 -120 -34 -15 -71 -3 -84 30 -14 33 -2 75
26 91 23 13 27 13 58 -1z"/>
<path d="M5444 3512 c-57 -36 -78 -78 -78 -153 1 -92 30 -151 87 -178 81 -38
191 -2 216 71 28 80 4 206 -48 253 -33 29 -136 33 -177 7z m109 -52 c29 -23
40 -61 39 -138 0 -66 -22 -102 -61 -102 -40 0 -61 29 -71 98 -10 70 1 131 26
149 24 18 37 16 67 -7z"/>
<path d="M10045 5931 c-63 -28 -84 -90 -56 -159 24 -57 118 -77 219 -47 80 24
111 83 82 159 -24 63 -155 88 -245 47z"/>
<path d="M1004 3526 l-72 -11 22 -52 c11 -29 23 -53 26 -53 3 0 23 17 45 37
22 19 56 48 75 64 l35 29 -30 -1 c-17 -1 -62 -7 -101 -13z"/>
<path d="M1615 2489 c-60 -49 -113 -89 -117 -89 -16 0 -7 -17 31 -58 48 -51
90 -56 149 -18 93 61 132 120 112 170 -13 34 -49 86 -58 85 -4 0 -56 -41 -117
-90z"/>
<path d="M8185 1711 c-44 -19 -75 -62 -75 -105 0 -51 46 -134 93 -170 62 -47
150 -27 183 42 15 31 15 37 -1 77 -20 53 -66 119 -98 139 -30 20 -77 28 -102
17z"/>
<path d="M2874 1467 c-6 -7 -36 -34 -67 -61 -31 -27 -57 -52 -57 -57 0 -8 90
-63 94 -57 2 1 13 40 25 85 24 82 25 111 5 90z"/>
<path d="M3921 883 c-29 -41 -49 -78 -45 -82 14 -12 93 -35 99 -29 3 3 4 46 3
96 l-3 90 -54 -75z"/>
</g>
</svg>
